<svg width="655" height="342" viewBox="0 0 655 342" fill="none" xmlns="http://www.w3.org/2000/svg">
<path d="M165.533 0.120392L354.642 -121.21" stroke="#FFE052" stroke-width="2" stroke-miterlimit="10"/>
<path d="M328.056 101.779L519.924 -21.1793L194.225 -222.462L2.35742 -99.5036L328.056 101.779Z" stroke="#FFE052" stroke-width="2" stroke-miterlimit="10"/>
<path d="M381.729 67.3211L349.626 47.8757L435.151 -6.79761L466.402 12.3313" stroke="#FFE052" stroke-width="2" stroke-miterlimit="10"/>
<path fill-rule="evenodd" clip-rule="evenodd" d="M528.315 177.901H528.266C526.067 177.901 524.113 176.726 522.793 174.72C518.787 168.457 522.696 152.996 525.432 144.335C528.07 135.968 531.442 127.406 534.422 119.871L534.862 118.794L539.846 120.507L539.504 121.632C536.328 132.152 535.204 141.497 536.816 144.286C537.012 144.58 537.158 144.678 537.256 144.727C537.598 144.727 540.432 144.189 547.224 135.626L614.749 50L619 53.0825L550.791 155.932C540.676 171.149 533.787 177.901 528.315 177.901ZM527.337 171.785C527.826 172.519 528.119 172.519 528.315 172.519C529.487 172.519 534.276 171.1 546.295 152.996L577.664 105.681L551.426 138.953C544.878 147.222 539.846 150.843 536.084 149.962C534.422 149.571 533.054 148.494 532.175 146.929C531.735 146.146 531.393 145.216 531.149 144.14C531.051 144.433 530.965 144.727 530.88 145.02C530.794 145.314 530.709 145.608 530.611 145.901C527.435 155.932 525.09 168.311 527.337 171.785ZM486.733 210.683H483.802H482.58V147.075L495.333 137.975L498.46 142.329V136.262L512.19 126.427L514.877 193.313L509.503 193.509L508.33 164.983L503.786 168.213V201.289H498.411V142.378L487.955 149.864V210.683H486.733ZM508.037 158.574L507.157 136.556L503.786 138.953V161.607L508.037 158.574ZM445.104 235.931L447.889 171.882L461.668 162.048L462.303 228.983L456.929 229.227L456.538 172.323L453.215 174.671L450.381 238.573L444.127 243.71L441 239.307L445.104 235.931ZM474.861 189.448V216.506H480.235V152.213L475.105 151.822L469.877 186.61V159.161H464.502V223.845L469.681 224.237L474.861 189.448ZM451.505 273.655L456.88 269.79V240.775H462.255V305.85L449.551 315L446.424 310.596L456.88 303.11V276.444L446.131 284.126V248.505H451.505V273.655ZM480.429 259.319V227.76H475.055V257.068L470.217 260.542V235.148H464.843V300.077H470.217V267.197L475.055 263.723V292.689H480.429V259.857L480.722 259.661L480.429 259.319ZM488.394 222.279V249.68L493.623 214.891L498.802 215.283V279.576H493.427V252.518L488.199 287.306L483.02 286.964V222.279H488.394ZM515.023 199.234L501.293 209.069V278.157L517.417 266.609V226.977L516.147 227.906L515.023 199.234ZM506.668 267.686V241.264L512.043 237.399V263.82L506.668 267.686ZM506.668 234.659V211.858L510.04 209.46L510.87 231.674L506.668 234.659ZM532.81 186.512L535.937 190.867L525.285 198.451V221.252L532.81 215.919L535.937 220.273L525.285 227.857V254.328L532.81 248.946L535.937 253.349L519.91 264.799V195.711L532.81 186.512ZM536.279 184.115V249.19H541.653V216.359L551.621 209.313L550.009 174.329L536.279 184.115ZM546.1 206.622L541.653 209.754V186.855L545.074 184.408L546.1 206.622ZM569.699 229.227L553.722 240.677V171.638L569.699 160.188V229.227ZM564.324 226.487V170.61L559.096 174.378V230.255L564.324 226.487ZM586.019 148.494L572.289 158.329V227.417L588.413 215.87V176.237L587.143 177.167L586.019 148.494ZM577.664 216.946V190.525L583.038 186.659V213.081L577.664 216.946ZM577.664 183.87V161.02L581.035 158.623L581.866 180.837L577.664 183.87Z" fill="#FFE052"/>
<path fill-rule="evenodd" clip-rule="evenodd" d="M648.918 143.494C670.236 143.494 687.542 159.095 687.542 178.315C687.542 197.534 670.236 213.135 648.918 213.135C627.599 213.135 610.293 197.534 610.293 178.315C610.293 159.095 627.599 143.494 648.918 143.494Z" stroke="#FFE052" stroke-width="2" stroke-miterlimit="10"/>
<path d="M553.51 239.326L738 112" stroke="#FFE052" stroke-width="2" stroke-miterlimit="10"/>
<path d="M716.034 339.985L907.902 217.027L582.203 15.7439L390.335 138.702L716.034 339.985Z" stroke="#FFE052" stroke-width="2" stroke-miterlimit="10"/>
<path d="M528.931 50.5183L560.533 69.5115L475.008 124.185L442.804 105.508" stroke="#FFE052" stroke-width="2" stroke-miterlimit="10"/>
</svg>
