<svg width="178" height="265" viewBox="0 0 178 265" fill="none" xmlns="http://www.w3.org/2000/svg">
<path fill-rule="evenodd" clip-rule="evenodd" d="M87.3147 127.901H87.2658C85.0671 127.901 83.1127 126.726 81.7934 124.72C77.7869 118.457 81.6957 102.996 84.4319 94.3353C87.0704 85.9685 90.4418 77.4059 93.4223 69.8708L93.862 68.7943L98.8458 70.5069L98.5038 71.6322C95.3278 82.152 94.204 91.4975 95.8164 94.2864C96.0119 94.58 96.1585 94.6778 96.2562 94.7268C96.5982 94.7268 99.4321 94.1886 106.224 85.626L173.749 0L178 3.08254L109.791 105.932C99.6764 121.149 92.7871 127.901 87.3147 127.901ZM86.3375 121.785C86.8261 122.519 87.1192 122.519 87.3147 122.519C88.4874 122.519 93.2757 121.1 105.295 102.996L136.664 55.6813L110.426 88.9531C103.878 97.2222 98.8458 100.843 95.0835 99.9622C93.4223 99.5708 92.0542 98.4943 91.1747 96.9286C90.7349 96.1457 90.3929 95.2161 90.1486 94.1396C90.0509 94.4332 89.9654 94.7268 89.8799 95.0204C89.7944 95.3139 89.7089 95.6075 89.6112 95.9011C86.4352 105.932 84.0899 118.311 86.3375 121.785ZM45.7335 160.683H42.8018H41.5803V97.0754L54.333 87.9746L57.46 92.3292V86.262L71.1899 76.4273L73.8772 143.313L68.5026 143.509L67.3299 114.983L62.7859 118.213V151.289H57.4112V92.3782L46.955 99.8643V160.683H45.7335ZM67.0367 108.574L66.1573 86.5556L62.7859 88.9531V111.607L67.0367 108.574ZM4.10429 185.931L6.88935 121.882L20.6681 112.048L21.3032 178.983L15.9286 179.227L15.5377 122.323L12.2152 124.671L9.38125 188.573L3.12708 193.71L0 189.307L4.10429 185.931ZM33.8607 139.448V166.506H39.2353V102.213L34.105 101.822L28.8769 136.61V109.161H23.5022V173.845L28.6814 174.237L33.8607 139.448ZM10.5053 223.655L15.88 219.79V190.775H21.2546V255.85L8.55086 265L5.42377 260.596L15.88 253.11V226.444L5.13062 234.126V198.505H10.5053V223.655ZM39.4293 209.319V177.76H34.0547V207.068L29.2174 210.542V185.148H23.8428V250.077H29.2174V217.197L34.0547 213.723V242.689H39.4293V209.857L39.7225 209.661L39.4293 209.319ZM47.3944 172.279V199.68L52.6225 164.891L57.8018 165.283V229.576H52.4271V202.518L47.199 237.306L42.0198 236.964V172.279H47.3944ZM74.0233 149.234L60.2935 159.069V228.157L76.4175 216.609V176.977L75.1471 177.906L74.0233 149.234ZM65.6681 217.686V191.264L71.0428 187.399V213.82L65.6681 217.686ZM65.6681 184.659V161.858L69.0395 159.46L69.8701 181.674L65.6681 184.659ZM91.8096 136.512L94.9367 140.867L84.2851 148.451V171.252L91.8096 165.919L94.9367 170.273L84.2851 177.857V204.328L91.8096 198.946L94.9367 203.349L78.9104 214.799V145.711L91.8096 136.512ZM95.2788 134.115V199.19H100.653V166.359L110.621 159.313L109.009 124.329L95.2788 134.115ZM105.1 156.622L100.653 159.754V136.855L104.074 134.408L105.1 156.622ZM128.699 179.227L112.722 190.677V121.638L128.699 110.188V179.227ZM123.324 176.487V120.61L118.096 124.378V180.255L123.324 176.487ZM145.019 98.4944L131.289 108.329V177.417L147.413 165.87V126.237L146.143 127.167L145.019 98.4944ZM136.664 166.946V140.525L142.038 136.659V163.081L136.664 166.946ZM136.664 133.87V111.02L140.035 108.623L140.866 130.837L136.664 133.87Z" fill="#FFE052"/>
</svg>
