<svg width="140" height="26" viewBox="0 0 140 26" fill="none" xmlns="http://www.w3.org/2000/svg">
<path d="M45.5393 15.3965L45.9834 16.2172C44.6852 17.0379 42.9087 17.4646 41.0981 17.4646C36.8277 17.4646 34.3338 15.2652 34.3338 10.5379C34.3338 6.00758 36.3153 3.25 41.3714 3.25C43.6262 3.25 45.1293 3.7096 45.5393 3.87374C45.5051 4.79293 45.5051 5.81061 45.5393 6.7298H44.6169L44.3777 5.87626C44.0361 4.85858 43.4212 4.13636 41.4739 4.13636C38.4334 4.13636 37.6476 6.30303 37.6476 10.0126C37.6476 13.5581 38.3992 16.1843 41.918 16.1843C43.6261 16.1843 44.6852 15.7904 45.5393 15.3965ZM52.1669 4.36617C51.2787 4.36617 51.142 4.59596 51.142 5.15404V8.40404H51.9278C55.8565 8.40404 58.6237 8.8308 58.6237 12.6061C58.6237 16.2828 56.4714 17.202 52.9527 17.202H47.2474V16.7753C47.9649 16.6111 48.0673 16.4141 48.0673 15.6591V4.9899C48.0673 4.23485 47.9649 4.03788 47.2474 3.90656V3.4798H57.8721C57.838 4.46465 57.838 5.4495 57.8721 6.46717H57.0864L56.9156 5.90909C56.4714 4.49747 55.959 4.36617 54.1142 4.36617H52.1669ZM52.8502 16.3485C54.695 16.3485 55.4466 15.1667 55.4466 12.7702C55.4466 10.5379 54.7975 9.29041 52.406 9.29041H51.1762V15.1667C51.1762 16.053 51.4153 16.3485 52.4402 16.3485H52.8502ZM64.8414 4.36617C64.2264 4.36617 64.124 4.53031 64.124 4.9899V9.25758H66.0371C66.8228 9.25758 68.0869 9.19192 68.5651 8.86364V10.6035C68.0869 10.2753 66.8228 10.1768 66.0371 10.1768H64.124V15.298C64.124 16.1187 64.4656 16.3813 66.3446 16.3813H66.7545C68.5993 16.3813 69.1118 16.25 69.5217 14.5758L69.6584 14.0505H70.5466C70.5124 15.101 70.5124 16.1843 70.5466 17.2348H60.2635V16.8081C60.981 16.6439 61.0834 16.447 61.0834 15.6919V5.02273C61.0834 4.26768 60.981 4.07071 60.2635 3.93939V3.51263H70.205C70.1708 4.49748 70.1708 5.48233 70.205 6.5H69.4192L69.2484 5.94192C68.8043 4.5303 68.2918 4.39899 66.447 4.39899H64.8414V4.36617ZM72.3572 17.2348V16.8081C73.0747 16.6439 73.1771 16.447 73.1771 15.6919V5.02273C73.1771 4.26768 73.0747 4.07071 72.3572 3.93939V3.51263H78.2674C81.103 3.51263 83.2211 4.1692 83.2211 7.45202C83.2211 10.8005 81.103 11.8182 77.6525 11.8182H76.2177V15.7247C76.2177 16.4798 76.3202 16.6768 77.0376 16.8409V17.2677H72.3572V17.2348ZM77.6867 10.9318C79.5998 10.9318 80.0439 9.45455 80.0439 7.32071C80.0439 5.51516 79.3948 4.36617 77.4817 4.36617H77.1401C76.5251 4.36617 76.2518 4.46465 76.2518 5.12121V10.9318H77.6867ZM89.4387 4.36617C88.5505 4.36617 88.4138 4.59596 88.4138 5.15404V8.40404H89.1996C93.1284 8.40404 95.8955 8.8308 95.8955 12.6061C95.8955 16.2828 93.7433 17.202 90.2587 17.202H84.5534V16.7753C85.2709 16.6111 85.3733 16.4141 85.3733 15.6591V4.9899C85.3733 4.23485 85.2709 4.03788 84.5534 3.90656V3.4798H95.1781C95.144 4.46465 95.144 5.4495 95.1781 6.46717H94.3924L94.2216 5.90909C93.7774 4.49747 93.265 4.36617 91.4202 4.36617H89.4387ZM90.0878 16.3485C91.9326 16.3485 92.6842 15.1667 92.6842 12.7702C92.6842 10.5379 92.0351 9.29041 89.6437 9.29041H88.4138V15.1667C88.4138 16.053 88.653 16.3485 89.6779 16.3485H90.0878ZM106.281 17.2348C106.144 16.4798 105.7 15.1338 105.325 14.0177L104.71 12.2778H100.166C99.6876 13.6566 99.346 14.7727 99.1752 15.5606C99.0044 16.3485 98.9019 16.9394 98.8677 17.2348H96.3055C96.6471 16.7096 97.2962 15.495 98.287 13.197L100.918 6.9596C101.498 5.58081 101.601 5.15404 101.601 4.7601C101.601 4.49747 101.532 4.10354 100.781 3.97222V3.54546H104.846C104.915 3.97223 104.949 4.43182 105.393 5.58081L108.399 13.7879C108.98 15.3965 109.629 16.7753 109.937 17.2677H106.281V17.2348ZM104.402 11.3586L102.489 5.84344L100.508 11.3586H104.402ZM120.425 10.1439H114.924V15.6919C114.924 16.447 115.027 16.6439 115.744 16.8081V17.2348H111.064V16.8081C111.781 16.6439 111.884 16.447 111.884 15.6919V5.02273C111.884 4.26768 111.781 4.07071 111.064 3.93939V3.51263H115.744V3.93939C115.027 4.10353 114.924 4.30051 114.924 5.02273V9.22475H120.425V5.02273C120.425 4.26768 120.322 4.07071 119.605 3.93939V3.51263H124.285V3.93939C123.568 4.10353 123.465 4.30051 123.465 5.02273V15.6919C123.465 16.447 123.568 16.6439 124.285 16.8081V17.2348H119.605V16.8081C120.322 16.6439 120.425 16.447 120.425 15.6919V10.1439ZM127.36 5.02273C127.36 4.26768 127.257 4.07071 126.54 3.93939V3.51263H131.22V3.93939C130.503 4.10353 130.4 4.30051 130.4 5.02273V15.6919C130.4 16.447 130.503 16.6439 131.22 16.8081V17.2348H126.54V16.8081C127.257 16.6439 127.36 16.447 127.36 15.6919V5.02273ZM134.978 11.1944C135.969 12.5404 138.292 15.5606 140 17.202H135.217C134.876 16.4798 134.363 15.298 132.86 13.1313L130.708 10.0126L132.587 7.68181C133.714 6.30303 135.149 4.43182 135.559 3.4798H138.907V3.51263C137.574 4.26768 135.285 6.46717 134.636 7.12374L133.133 8.66666L134.978 11.1944ZM139.966 20.649H35.427V22.0278H139.966V20.649ZM8.57491 16.2828L0.0341599 11.5556C-3.12924e-06 11.851 0 12.1465 0 12.4419C0 12.6389 0 12.8359 0 13.0328C0.034163 13.6566 0.102486 14.2803 0.204975 14.904C0.512442 16.4798 1.09322 17.9571 1.87897 19.2702C2.08394 19.6313 2.32308 19.9924 2.59639 20.3207C2.59639 20.3207 2.59639 20.3207 2.59639 20.3535L2.63055 20.3864C3.51879 21.601 4.64616 22.6515 5.9102 23.505C7.00341 24.2273 8.19912 24.851 9.46315 25.2449C9.66813 25.3106 9.87311 25.3763 10.1122 25.4419C10.1464 25.4419 10.1464 25.4419 10.1806 25.4747C11.4104 25.803 12.7428 26 14.0752 26C14.6218 26 15.1342 25.9672 15.6467 25.9015C15.715 25.9015 15.7833 25.9015 15.8516 25.8687C17.2865 25.7045 18.6872 25.3106 19.9854 24.7525C21.591 24.0303 23.0259 23.0455 24.2216 21.8308C24.2557 21.798 24.2899 21.7652 24.3241 21.7323C24.7682 21.2727 25.1781 20.7803 25.5539 20.2879C26.7155 18.745 27.5012 16.9722 27.9112 15.0682C27.9112 15.0353 27.9112 15.0025 27.9453 14.9697C28.1161 14.149 28.1845 13.2955 28.1845 12.4419C28.1845 12.3434 28.1845 12.2449 28.1845 12.1465C28.1845 11.5556 28.1162 10.9975 28.0137 10.4066C27.7745 8.96212 27.3304 7.55051 26.613 6.2702L8.57491 16.2828ZM8.57491 12.8687L0.649095 8.4697C0.614932 8.56819 0.580768 8.6995 0.546605 8.79798C0.444116 9.19192 0.341626 9.58586 0.2733 9.97979L8.60908 14.5758L25.8956 5.02273C25.6564 4.66162 25.3831 4.33334 25.1098 4.00505C25.0756 3.9394 25.0073 3.90657 24.9732 3.84091L8.57491 12.8687ZM8.57491 9.45455L1.87897 5.74495C1.63982 6.17172 1.40068 6.59848 1.19571 7.05808L8.60908 11.1616L23.9141 2.72475C23.5041 2.36364 23.0942 2.03536 22.6842 1.70707L8.57491 9.45455ZM8.57491 6.07323L3.6896 3.38132C3.34797 3.74243 3.00634 4.13637 2.69888 4.53031L8.57491 7.78031L21.2152 0.787877C20.7028 0.492422 20.122 0.229798 19.5754 0L8.57491 6.07323ZM8.57491 16.2828L0.0341599 11.5556C-3.12924e-06 11.851 0 12.1465 0 12.4419C0 12.6389 0 12.8359 0 13.0328C0.034163 13.6566 0.102486 14.2803 0.204975 14.904C0.512442 16.4798 1.09322 17.9571 1.87897 19.2702C2.08394 19.6313 2.32308 19.9924 2.59639 20.3207C2.59639 20.3207 2.59639 20.3207 2.59639 20.3535L2.63055 20.3864C3.51879 21.601 4.64616 22.6515 5.9102 23.505C7.00341 24.2273 8.19912 24.851 9.46315 25.2449C9.66813 25.3106 9.87311 25.3763 10.1122 25.4419C10.1464 25.4419 10.1464 25.4419 10.1806 25.4747C11.4104 25.803 12.7428 26 14.0752 26C14.6218 26 15.1342 25.9672 15.6467 25.9015C15.715 25.9015 15.7833 25.9015 15.8516 25.8687C17.2865 25.7045 18.6872 25.3106 19.9854 24.7525C21.591 24.0303 23.0259 23.0455 24.2216 21.8308C24.2557 21.798 24.2899 21.7652 24.3241 21.7323C24.7682 21.2727 25.1781 20.7803 25.5539 20.2879C26.7155 18.745 27.5012 16.9722 27.9112 15.0682C27.9112 15.0353 27.9112 15.0025 27.9453 14.9697C28.1161 14.149 28.1845 13.2955 28.1845 12.4419C28.1845 12.3434 28.1845 12.2449 28.1845 12.1465C28.1845 11.5556 28.1162 10.9975 28.0137 10.4066C27.7745 8.96212 27.3304 7.55051 26.613 6.2702L8.57491 16.2828ZM8.57491 12.8687L0.649095 8.4697C0.614932 8.56819 0.580768 8.6995 0.546605 8.79798C0.444116 9.19192 0.341626 9.58586 0.2733 9.97979L8.60908 14.5758L25.8956 5.02273C25.6564 4.66162 25.3831 4.33334 25.1098 4.00505C25.0756 3.9394 25.0073 3.90657 24.9732 3.84091L8.57491 12.8687ZM8.57491 9.45455L1.87897 5.74495C1.63982 6.17172 1.40068 6.59848 1.19571 7.05808L8.60908 11.1616L23.9141 2.72475C23.5041 2.36364 23.0942 2.03536 22.6842 1.70707L8.57491 9.45455ZM8.57491 6.07323L3.6896 3.38132C3.34797 3.74243 3.00634 4.13637 2.69888 4.53031L8.57491 7.78031L21.2152 0.787877C20.7028 0.492422 20.122 0.229798 19.5754 0L8.57491 6.07323Z" fill="white"/>
</svg>
