<svg width="30" height="30" viewBox="0 0 30 30" fill="none" xmlns="http://www.w3.org/2000/svg">
<rect x="0.5" y="0.5" width="29" height="29" fill="white" stroke="#DFDFDF"/>
<path d="M3 30C3 26.6984 3.15909 24.6414 3.47727 23.8289C3.77273 23.3388 4.39773 22.8681 5.35227 22.4167C5.44318 22.3651 6.19034 22.0813 7.59375 21.5655C8.99716 21.0496 9.71591 20.7852 9.75 20.7723C10.5341 20.4499 11.0483 20.2016 11.2926 20.0275C11.5369 19.8534 11.7216 19.6116 11.8466 19.3021L12.2386 18.3735C12.2955 18.0511 12.2273 17.7867 12.0341 17.5804C10.5227 16.0327 9.77273 13.937 9.78409 11.2932C9.78409 9.16518 10.2443 7.41766 11.1648 6.0506C12.0852 4.68353 13.3636 4 15 4C16.6364 4 17.9148 4.68353 18.8352 6.0506C19.7557 7.41766 20.2159 9.16518 20.2159 11.2932C20.2273 13.937 19.4773 16.0327 17.9659 17.5804C17.7727 17.7867 17.7045 18.0511 17.7614 18.3735L18.1534 19.3021C18.2784 19.6116 18.4631 19.8534 18.7074 20.0275C18.9517 20.2016 19.4659 20.4499 20.25 20.7723C20.2841 20.7852 21.0028 21.0496 22.4063 21.5655C23.8097 22.0813 24.5568 22.3651 24.6477 22.4167C25.6023 22.8681 26.2273 23.3388 26.5227 23.8289C26.8409 24.6414 27 26.6984 27 30" stroke="#DFDFDF"/>
</svg>
