<svg width="24" height="24" viewBox="0 0 24 24" fill="none" xmlns="http://www.w3.org/2000/svg">
<path d="M21.363 14.81C21.363 14.81 23.3043 16.765 23.7823 17.6726C23.796 17.6912 23.8028 17.7099 23.8074 17.7192C24.0018 18.0528 24.0475 18.3118 23.9515 18.5054C23.7914 18.8274 23.2426 18.986 23.0551 19H19.6251C19.3873 19 18.8888 18.937 18.2851 18.5124C17.8209 18.1811 17.3636 17.6376 16.9177 17.108C16.2523 16.3194 15.676 15.6382 15.0952 15.6382C15.0214 15.6381 14.9481 15.6499 14.878 15.6732C14.4389 15.8179 13.8764 16.4571 13.8764 18.1601C13.8764 18.6921 13.4648 18.9977 13.1744 18.9977H11.6035C11.0684 18.9977 8.28095 18.8064 5.81135 16.1491C2.78837 12.8947 0.0672422 6.36711 0.0443756 6.30645C-0.127124 5.88419 0.227309 5.65789 0.613755 5.65789H4.07805C4.53996 5.65789 4.69088 5.94484 4.79607 6.19913C4.91955 6.49542 5.37231 7.67355 6.11547 8.99867C7.32055 11.159 8.05914 12.0362 8.65139 12.0362C8.76244 12.0348 8.87151 12.006 8.96923 11.9522C9.74213 11.5136 9.59807 8.70238 9.56377 8.11915C9.56377 8.0095 9.56148 6.86169 9.16588 6.31111C8.88234 5.91218 8.39985 5.76054 8.10716 5.70455C8.22563 5.53777 8.38171 5.40254 8.56221 5.31028C9.09271 5.03966 10.0485 5 10.9975 5H11.5257C12.5547 5.014 12.82 5.08165 13.1927 5.1773C13.9473 5.36161 13.9633 5.85852 13.897 7.55924C13.8764 8.04216 13.8558 8.58807 13.8558 9.23196C13.8558 9.37194 13.849 9.52125 13.849 9.67989C13.8261 10.5454 13.7987 11.5276 14.3978 11.9312C14.4759 11.9812 14.5662 12.0078 14.6585 12.0082C14.8665 12.0082 15.4931 12.0082 17.1898 9.03833C17.7131 8.08242 18.1678 7.0891 18.5504 6.06616C18.5847 6.0055 18.6853 5.81886 18.8042 5.74654C18.8919 5.7009 18.9892 5.67768 19.0877 5.67889H23.1603C23.6039 5.67889 23.908 5.74654 23.9652 5.92151C24.0658 6.19913 23.9469 7.04599 22.0878 9.61456L21.2578 10.732C19.5725 12.9857 19.5725 13.1 21.363 14.81Z" fill="white"/>
</svg>
