<svg width="24" height="24" viewBox="0 0 24 24" fill="none" xmlns="http://www.w3.org/2000/svg">
<path d="M22.5408 6.65557C22.4156 6.14135 22.1701 5.6724 21.8288 5.29567C21.4875 4.91894 21.0625 4.64764 20.5962 4.50892C18.8799 4 12 4 12 4C12 4 5.12009 4 3.40379 4.50621C2.93733 4.64448 2.51207 4.91563 2.17073 5.29243C1.82939 5.66923 1.58398 6.13842 1.45915 6.65287C1 8.54777 1 12.5 1 12.5C1 12.5 1 16.4522 1.45915 18.3444C1.71205 19.3893 2.45848 20.2123 3.40379 20.4911C5.12009 21 12 21 12 21C12 21 18.8799 21 20.5962 20.4911C21.544 20.2123 22.2879 19.3893 22.5408 18.3444C23 16.4522 23 12.5 23 12.5C23 12.5 23 8.54777 22.5408 6.65557ZM9.81473 16.1274V8.87261L15.5112 12.4729L9.81473 16.1274Z" fill="white"/>
</svg>
